<?xml version="1.0" encoding="UTF-8" standalone="no"?>
<svg
   viewBox="0 0 100 100"
   version="1.1"
   id="box"
   xmlns:xlink="http://www.w3.org/1999/xlink"
   xmlns="http://www.w3.org/2000/svg">
  <defs
     id="defs1">
    <linearGradient
       id="linearGradient6">
      <stop
         style="stop-color:#c76324;stop-opacity:1;"
         offset="0.32571429"
         id="stop7" />
      <stop
         style="stop-color:#c72424;stop-opacity:1;"
         offset="1"
         id="stop6" />
    </linearGradient>
    <radialGradient
       xlink:href="#linearGradient6"
       id="radialGradient7"
       cx="50"
       cy="50"
       fx="50"
       fy="50"
       r="37.5"
       gradientUnits="userSpaceOnUse"
       gradientTransform="matrix(1.0275861,0,0,1.0275861,-1.3793132,-1.3793145)" />
  </defs>
  <g
     id="layer2">
    <circle
       style="fill:url(#radialGradient7);fill-opacity:1;stroke:#000000;stroke-width:0.5;stroke-linecap:round;stroke-linejoin:round;stroke-dasharray:none;stroke-opacity:1;paint-order:fill markers stroke"
       id="path6"
       cx="50"
       cy="50"
       r="37.25" />
  </g>
  <g
     id="layer1">
    <path
       id="path5"
       style="fill:none;stroke:#1e90ff;stroke-width:10;stroke-linejoin:round;"
       d="m 6.25,72.5 h 87.5 M 6.25,50 h 87.5 M 6.25,27.5 h 87.5 M 93.749997,6.25 6.25,93.749997 v 0 M 6.25,6.25 h 87.5 v 87.5 H 6.25 Z" />
    <path
       id="path14-7"
       style="fill:#0c497f"
       d="m 97.25,93.5 c 0,2.071068 -1.678932,3.75 -3.75,3.75 -2.071068,0 -3.75,-1.678932 -3.75,-3.75 0,-2.071068 1.678932,-3.75 3.75,-3.75 2.071068,0 3.75,1.678932 3.75,3.75 z m -87,0 c 0,2.071068 -1.6789322,3.75 -3.75,3.75 -2.0710678,0 -3.75,-1.678932 -3.75,-3.75 0,-2.071068 1.6789322,-3.75 3.75,-3.75 2.0710678,0 3.75,1.678932 3.75,3.75 z m 87,-87 c 0,2.0710678 -1.678932,3.75 -3.75,3.75 -2.071068,0 -3.75,-1.6789322 -3.75,-3.75 0,-2.0710678 1.678932,-3.75 3.75,-3.75 2.071068,0 3.75,1.6789322 3.75,3.75 z m -87,0 c 0,2.0710678 -1.6789322,3.75 -3.75,3.75 -2.0710678,0 -3.75,-1.6789322 -3.75,-3.75 0,-2.0710678 1.6789322,-3.75 3.75,-3.75 2.0710678,0 3.75,1.6789322 3.75,3.75 z" />
  </g>
</svg>
